<svg class="animated" id="freepik_stories-electrician" xmlns="http://www.w3.org/2000/svg" viewBox="0 0 500 500" version="1.1" xmlns:xlink="http://www.w3.org/1999/xlink" xmlns:svgjs="http://svgjs.com/svgjs"><style>svg#freepik_stories-electrician:not(.animated) .animable {opacity: 0;}svg#freepik_stories-electrician.animated #freepik--Bulb--inject-6 {animation: 0.5s 1 forwards cubic-bezier(.36,-0.01,.5,1.38) fadeIn,1.5s Infinite  linear heartbeat;animation-delay: 0s,0.5s;}            @keyframes fadeIn {                0% {                    opacity: 0;                }                100% {                    opacity: 1;                }            }                    @keyframes heartbeat {                0% {                    transform: scale(1);                }                10% {                    transform: scale(1.1);                }                30% {                    transform: scale(1);                }                40% {                    transform: scale(1);                }                50% {                    transform: scale(1.1);                }                60% {                    transform: scale(1);                }                100% {                    transform: scale(1);                }            }        .animator-hidden { display: none; }</style><g id="freepik--background-complete--inject-6" class="animable animator-hidden" style="transform-origin: 250px 226.87px;"><rect y="382.4" width="500" height="0.25" style="fill: rgb(235, 235, 235); transform-origin: 250px 382.525px;" id="el6guyf4pxrne" class="animable"></rect><rect x="423.67" y="398.49" width="26.23" height="0.25" style="fill: rgb(235, 235, 235); transform-origin: 436.785px 398.615px;" id="el3n8blgwm93c" class="animable"></rect><rect x="322.53" y="395.24" width="34.23" height="0.25" style="fill: rgb(235, 235, 235); transform-origin: 339.645px 395.365px;" id="elram2i79szbq" class="animable"></rect><rect x="389.33" y="389.21" width="26.44" height="0.25" style="fill: rgb(235, 235, 235); transform-origin: 402.55px 389.335px;" id="eljklhsjc0fy" class="animable"></rect><rect x="67.7" y="390.89" width="43.19" height="0.25" style="fill: rgb(235, 235, 235); transform-origin: 89.295px 391.015px;" id="elejf4c0yqdnw" class="animable"></rect><rect x="52.46" y="390.89" width="6.33" height="0.25" style="fill: rgb(235, 235, 235); transform-origin: 55.625px 391.015px;" id="elrzyx0focvx" class="animable"></rect><rect x="131.47" y="395.11" width="56.2" height="0.25" style="fill: rgb(235, 235, 235); transform-origin: 159.57px 395.235px;" id="elfmpu3op5n0k" class="animable"></rect><path d="M237,337.8H43.91a5.71,5.71,0,0,1-5.7-5.71V60.66A5.71,5.71,0,0,1,43.91,55H237a5.71,5.71,0,0,1,5.71,5.71V332.09A5.71,5.71,0,0,1,237,337.8ZM43.91,55.2a5.46,5.46,0,0,0-5.45,5.46V332.09a5.46,5.46,0,0,0,5.45,5.46H237a5.47,5.47,0,0,0,5.46-5.46V60.66A5.47,5.47,0,0,0,237,55.2Z" style="fill: rgb(235, 235, 235); transform-origin: 140.46px 196.4px;" id="elc44daf6peln" class="animable"></path><path d="M453.31,337.8H260.21a5.72,5.72,0,0,1-5.71-5.71V60.66A5.72,5.72,0,0,1,260.21,55h193.1A5.71,5.71,0,0,1,459,60.66V332.09A5.71,5.71,0,0,1,453.31,337.8ZM260.21,55.2a5.47,5.47,0,0,0-5.46,5.46V332.09a5.47,5.47,0,0,0,5.46,5.46h193.1a5.47,5.47,0,0,0,5.46-5.46V60.66a5.47,5.47,0,0,0-5.46-5.46Z" style="fill: rgb(235, 235, 235); transform-origin: 356.75px 196.4px;" id="elikkb08qxgck" class="animable"></path><rect x="296.24" y="104.53" width="112.6" height="173.85" style="fill: rgb(235, 235, 235); transform-origin: 352.54px 191.455px;" id="elim4q0mggkci" class="animable"></rect><g id="eld26yyualxbv"><rect x="216.76" y="104.53" width="79.49" height="173.85" style="fill: rgb(245, 245, 245); transform-origin: 256.505px 191.455px; transform: rotate(180deg);" class="animable"></rect></g><rect x="215.34" y="104.53" width="1.42" height="173.85" style="fill: rgb(230, 230, 230); transform-origin: 216.05px 191.455px;" id="elyyeu0gjczpi" class="animable"></rect><g id="el5mkvutnp0qa"><rect x="267.74" y="137.28" width="169.61" height="108.36" style="fill: rgb(245, 245, 245); transform-origin: 352.545px 191.46px; transform: rotate(90deg);" class="animable"></rect></g><polygon points="406.73 207.63 349.47 207.63 349.47 106.66 350.47 106.66 350.47 206.63 406.73 206.63 406.73 207.63" style="fill: rgb(224, 224, 224); transform-origin: 378.1px 157.145px;" id="elk42sh98bqv" class="animable"></polygon><g id="elv2pbxrbtng"><rect x="408.84" y="104.53" width="18.16" height="173.85" style="fill: rgb(224, 224, 224); transform-origin: 417.92px 191.455px; transform: rotate(180deg);" class="animable"></rect></g><g id="el3f886or4rex"><rect x="298.36" y="106.66" width="18.16" height="169.61" style="fill: rgb(224, 224, 224); transform-origin: 307.44px 191.465px; transform: rotate(180deg);" class="animable"></rect></g><rect x="323.06" y="127.8" width="46.17" height="67.13" style="fill: rgb(230, 230, 230); transform-origin: 346.145px 161.365px;" id="ellh07sonpfue" class="animable"></rect><rect x="328.47" y="133.33" width="35.33" height="46.65" rx="2.01" style="fill: rgb(240, 240, 240); transform-origin: 346.135px 156.655px;" id="ellad5u4g1h5o" class="animable"></rect><g id="elmhmzdtuquok"><rect x="369.23" y="127.8" width="8.48" height="67.13" style="fill: rgb(224, 224, 224); transform-origin: 373.47px 161.365px; transform: rotate(180deg);" class="animable"></rect></g><path d="M346.14,151.17h0a1.47,1.47,0,0,1-1.47-1.47v-8.08a1.48,1.48,0,0,1,1.47-1.48h0a1.48,1.48,0,0,1,1.47,1.48v8.08A1.47,1.47,0,0,1,346.14,151.17Z" style="fill: rgb(250, 250, 250); transform-origin: 346.14px 145.655px;" id="el19h29r65be5" class="animable"></path><path d="M340.84,151.17h0a1.47,1.47,0,0,1-1.47-1.47v-8.08a1.48,1.48,0,0,1,1.47-1.48h0a1.48,1.48,0,0,1,1.47,1.48v8.08A1.47,1.47,0,0,1,340.84,151.17Z" style="fill: rgb(250, 250, 250); transform-origin: 340.84px 145.655px;" id="el3uc5bkguvk5" class="animable"></path><path d="M335.54,151.17h0a1.47,1.47,0,0,1-1.47-1.47v-8.08a1.48,1.48,0,0,1,1.47-1.48h0a1.48,1.48,0,0,1,1.47,1.48v8.08A1.47,1.47,0,0,1,335.54,151.17Z" style="fill: rgb(250, 250, 250); transform-origin: 335.54px 145.655px;" id="elov2121tw51n" class="animable"></path><path d="M351.44,151.17h0A1.47,1.47,0,0,1,350,149.7v-8.08a1.48,1.48,0,0,1,1.47-1.48h0a1.48,1.48,0,0,1,1.47,1.48v8.08A1.47,1.47,0,0,1,351.44,151.17Z" style="fill: rgb(250, 250, 250); transform-origin: 351.47px 145.655px;" id="el79zg2hxt9f5" class="animable"></path><path d="M356.74,151.17h0a1.47,1.47,0,0,1-1.47-1.47v-8.08a1.48,1.48,0,0,1,1.47-1.48h0a1.48,1.48,0,0,1,1.47,1.48v8.08A1.47,1.47,0,0,1,356.74,151.17Z" style="fill: rgb(250, 250, 250); transform-origin: 356.74px 145.655px;" id="elantcl9fc97t" class="animable"></path><path d="M335.54,162.68a1,1,0,1,1-1-1A1,1,0,0,1,335.54,162.68Z" style="fill: rgb(250, 250, 250); transform-origin: 334.54px 162.68px;" id="ellrn0g0nf5q" class="animable"></path><path d="M335.54,172.22a1,1,0,1,1-1-1A1,1,0,0,1,335.54,172.22Z" style="fill: rgb(230, 230, 230); transform-origin: 334.54px 172.22px;" id="el1yvjry35rhx" class="animable"></path><path d="M339.78,172.22a1,1,0,1,1-1-1A1,1,0,0,1,339.78,172.22Z" style="fill: rgb(230, 230, 230); transform-origin: 338.78px 172.22px;" id="el7cgj3cudc6j" class="animable"></path><path d="M344,172.22a1,1,0,1,1-1-1A1,1,0,0,1,344,172.22Z" style="fill: rgb(230, 230, 230); transform-origin: 343px 172.22px;" id="el4aly852keir" class="animable"></path><rect x="328.75" y="217.57" width="8.3" height="51.39" style="fill: rgb(230, 230, 230); transform-origin: 332.9px 243.265px;" id="elalrcazhfijp" class="animable"></rect><rect x="328.75" y="227.33" width="8.3" height="4.26" style="fill: rgb(224, 224, 224); transform-origin: 332.9px 229.46px;" id="elqwycqbmimm" class="animable"></rect><rect x="328.75" y="244.49" width="8.3" height="1.81" style="fill: rgb(224, 224, 224); transform-origin: 332.9px 245.395px;" id="elq7of9gn1ddp" class="animable"></rect><g id="elcsf1vq0rau"><rect x="337.06" y="217.57" width="3.18" height="51.39" style="fill: rgb(224, 224, 224); transform-origin: 338.65px 243.265px; transform: rotate(180deg);" class="animable"></rect></g><path d="M334.71,222.67a1.81,1.81,0,1,1-1.8-1.8A1.81,1.81,0,0,1,334.71,222.67Z" style="fill: rgb(245, 245, 245); transform-origin: 332.9px 222.68px;" id="el9o7ewsklok" class="animable"></path><rect x="339.35" y="217.57" width="8.3" height="51.39" style="fill: rgb(230, 230, 230); transform-origin: 343.5px 243.265px;" id="eljkz9t09ec1p" class="animable"></rect><rect x="339.35" y="227.33" width="8.3" height="4.26" style="fill: rgb(224, 224, 224); transform-origin: 343.5px 229.46px;" id="elfblgm0h65qg" class="animable"></rect><rect x="339.35" y="244.49" width="8.3" height="1.81" style="fill: rgb(224, 224, 224); transform-origin: 343.5px 245.395px;" id="elwqmwghiqy" class="animable"></rect><g id="el0j7kdwl5oaei"><rect x="347.66" y="217.57" width="3.18" height="51.39" style="fill: rgb(224, 224, 224); transform-origin: 349.25px 243.265px; transform: rotate(180deg);" class="animable"></rect></g><path d="M345.31,222.67a1.81,1.81,0,1,1-1.8-1.8A1.81,1.81,0,0,1,345.31,222.67Z" style="fill: rgb(245, 245, 245); transform-origin: 343.5px 222.68px;" id="elf7mbksao06j" class="animable"></path><rect x="349.96" y="217.57" width="8.3" height="51.39" style="fill: rgb(230, 230, 230); transform-origin: 354.11px 243.265px;" id="elr0m5u57wl5" class="animable"></rect><rect x="349.96" y="227.33" width="8.3" height="4.26" style="fill: rgb(224, 224, 224); transform-origin: 354.11px 229.46px;" id="elf6z62y4chlj" class="animable"></rect><rect x="349.96" y="244.49" width="8.3" height="1.81" style="fill: rgb(224, 224, 224); transform-origin: 354.11px 245.395px;" id="el55j9pith7ky" class="animable"></rect><g id="elzmjlo9cwja"><rect x="358.26" y="217.57" width="3.18" height="51.39" style="fill: rgb(224, 224, 224); transform-origin: 359.85px 243.265px; transform: rotate(180deg);" class="animable"></rect></g><path d="M355.91,222.67a1.81,1.81,0,1,1-1.8-1.8A1.81,1.81,0,0,1,355.91,222.67Z" style="fill: rgb(245, 245, 245); transform-origin: 354.1px 222.68px;" id="elacerviuetz" class="animable"></path><rect x="360.56" y="217.57" width="8.3" height="51.39" style="fill: rgb(230, 230, 230); transform-origin: 364.71px 243.265px;" id="eltfsutki9yc8" class="animable"></rect><rect x="360.56" y="227.33" width="8.3" height="4.26" style="fill: rgb(224, 224, 224); transform-origin: 364.71px 229.46px;" id="elfxdz4bv1vtq" class="animable"></rect><rect x="360.56" y="244.49" width="8.3" height="1.81" style="fill: rgb(224, 224, 224); transform-origin: 364.71px 245.395px;" id="el6vhfgud1d4c" class="animable"></rect><g id="elmrcb13o5uko"><rect x="368.86" y="217.57" width="3.18" height="51.39" style="fill: rgb(224, 224, 224); transform-origin: 370.45px 243.265px; transform: rotate(180deg);" class="animable"></rect></g><path d="M366.51,222.67a1.81,1.81,0,1,1-1.8-1.8A1.81,1.81,0,0,1,366.51,222.67Z" style="fill: rgb(245, 245, 245); transform-origin: 364.7px 222.68px;" id="elilou4dh6c7" class="animable"></path><rect x="371.16" y="217.57" width="8.3" height="51.39" style="fill: rgb(230, 230, 230); transform-origin: 375.31px 243.265px;" id="el0m50sdp156bk" class="animable"></rect><rect x="371.16" y="227.33" width="8.3" height="4.26" style="fill: rgb(224, 224, 224); transform-origin: 375.31px 229.46px;" id="ell71aroxerr" class="animable"></rect><rect x="371.16" y="244.49" width="8.3" height="1.81" style="fill: rgb(224, 224, 224); transform-origin: 375.31px 245.395px;" id="elnrez8busmn9" class="animable"></rect><g id="elvi8ab5wzc6f"><rect x="379.46" y="217.57" width="3.18" height="51.39" style="fill: rgb(224, 224, 224); transform-origin: 381.05px 243.265px; transform: rotate(180deg);" class="animable"></rect></g><path d="M377.11,222.67a1.81,1.81,0,1,1-1.8-1.8A1.81,1.81,0,0,1,377.11,222.67Z" style="fill: rgb(245, 245, 245); transform-origin: 375.3px 222.68px;" id="el9cy9c8mq04" class="animable"></path><rect x="381.76" y="217.57" width="8.3" height="51.39" style="fill: rgb(230, 230, 230); transform-origin: 385.91px 243.265px;" id="el6hrqthm8t2h" class="animable"></rect><rect x="381.76" y="227.33" width="8.3" height="4.26" style="fill: rgb(224, 224, 224); transform-origin: 385.91px 229.46px;" id="elpiktvrv41mm" class="animable"></rect><rect x="381.76" y="244.49" width="8.3" height="1.81" style="fill: rgb(224, 224, 224); transform-origin: 385.91px 245.395px;" id="elzbhnnd7tfr" class="animable"></rect><g id="el9uyt9sbs3zq"><rect x="390.06" y="217.57" width="3.18" height="51.39" style="fill: rgb(224, 224, 224); transform-origin: 391.65px 243.265px; transform: rotate(180deg);" class="animable"></rect></g><path d="M387.71,222.67a1.81,1.81,0,1,1-1.8-1.8A1.81,1.81,0,0,1,387.71,222.67Z" style="fill: rgb(245, 245, 245); transform-origin: 385.9px 222.68px;" id="el72v090175z" class="animable"></path><polygon points="333.41 217.57 332.41 217.57 332.41 206.63 349.97 206.63 349.97 207.63 333.41 207.63 333.41 217.57" style="fill: rgb(224, 224, 224); transform-origin: 341.19px 212.1px;" id="elc91caydmwr" class="animable"></polygon><rect x="343.01" y="207.13" width="1" height="10.45" style="fill: rgb(224, 224, 224); transform-origin: 343.51px 212.355px;" id="elwn2lqw4s25" class="animable"></rect><rect x="353.61" y="207.13" width="1" height="10.45" style="fill: rgb(224, 224, 224); transform-origin: 354.11px 212.355px;" id="elzc9859v5b4" class="animable"></rect><rect x="364.21" y="207.13" width="1" height="10.45" style="fill: rgb(224, 224, 224); transform-origin: 364.71px 212.355px;" id="elp0fdb1di2em" class="animable"></rect><rect x="374.81" y="207.13" width="1" height="10.45" style="fill: rgb(224, 224, 224); transform-origin: 375.31px 212.355px;" id="elqwg2sq6wzh" class="animable"></rect><rect x="385.41" y="207.13" width="1" height="10.45" style="fill: rgb(224, 224, 224); transform-origin: 385.91px 212.355px;" id="el7e7hda39du" class="animable"></rect><rect x="384.1" y="152.83" width="15.81" height="30.62" style="fill: rgb(235, 235, 235); transform-origin: 392.005px 168.14px;" id="el5jolm8jp3h" class="animable"></rect><rect x="384.1" y="152.83" width="14.27" height="30.62" style="fill: rgb(255, 255, 255); transform-origin: 391.235px 168.14px;" id="elxsjh8apuj08" class="animable"></rect><rect x="391.38" y="106.66" width="1.26" height="46.17" style="fill: rgb(224, 224, 224); transform-origin: 392.01px 129.745px;" id="el1vcmthzx6ix" class="animable"></rect><path d="M158.87,170.74H118l.83,3.45h29.41L156,206.42H126.56l.83,3.45H156.8l7.76,32.23H135.15l.7,2.87L118,170.74H106.49l51,211.91H169L144.15,279.44l.42,1.78H174l7.76,32.23H152.33l.83,3.45h29.41l7.76,32.23H160.92l.83,3.44h29.41l7.25,30.08h11.48Zm-15.13,107L136,245.54h29.41l7.76,32.23Z" style="fill: rgb(224, 224, 224); transform-origin: 158.19px 276.695px;" id="elx3b8e441z58" class="animable"></path><polygon points="86.11 382.65 89.19 382.65 140.21 170.74 137.14 170.74 86.11 382.65" style="fill: rgb(245, 245, 245); transform-origin: 113.16px 276.695px;" id="elbrdllshjbph" class="animable"></polygon><polygon points="97.6 382.65 89.19 382.65 140.21 170.74 148.62 170.74 97.6 382.65" style="fill: rgb(230, 230, 230); transform-origin: 118.905px 276.695px;" id="elrct4madrm6g" class="animable"></polygon><polygon points="45.22 382.65 48.3 382.65 99.32 170.74 96.24 170.74 45.22 382.65" style="fill: rgb(245, 245, 245); transform-origin: 72.27px 276.695px;" id="el4m80iep6f36" class="animable"></polygon><polygon points="56.7 382.65 48.3 382.65 99.32 170.74 107.73 170.74 56.7 382.65" style="fill: rgb(230, 230, 230); transform-origin: 78.015px 276.695px;" id="elsp24vzc3wh" class="animable"></polygon><polygon points="98.49 174.19 136.31 174.19 137.14 170.74 99.32 170.74 98.49 174.19" style="fill: rgb(245, 245, 245); transform-origin: 117.815px 172.465px;" id="elff00rem2suo" class="animable"></polygon><polygon points="89.9 209.87 127.72 209.87 128.55 206.42 90.73 206.42 89.9 209.87" style="fill: rgb(245, 245, 245); transform-origin: 109.225px 208.145px;" id="el2wh2nk6anrw" class="animable"></polygon><polygon points="81.31 245.54 119.13 245.54 119.96 242.09 82.14 242.09 81.31 245.54" style="fill: rgb(245, 245, 245); transform-origin: 100.635px 243.815px;" id="elf9obhr685m6" class="animable"></polygon><polygon points="72.72 281.22 110.54 281.22 111.37 277.77 73.55 277.77 72.72 281.22" style="fill: rgb(245, 245, 245); transform-origin: 92.045px 279.495px;" id="elp2rye93dddi" class="animable"></polygon><polygon points="64.13 316.9 101.95 316.9 102.78 313.45 64.96 313.45 64.13 316.9" style="fill: rgb(245, 245, 245); transform-origin: 83.455px 315.175px;" id="elfjvfw864hx" class="animable"></polygon><polygon points="55.54 352.57 93.36 352.57 94.19 349.13 56.37 349.13 55.54 352.57" style="fill: rgb(245, 245, 245); transform-origin: 74.865px 350.85px;" id="el4veuejim8ex" class="animable"></polygon><path d="M381.82,321.49v-8.85a4.36,4.36,0,0,0-4.36-4.36h0a4.36,4.36,0,0,0-4.35,4.36v8.85a13.39,13.39,0,0,1-3.79,9.33l-10.83,11.12a9.75,9.75,0,0,0-2.56,8.76l6.52,31.7h30L399,350.7a9.75,9.75,0,0,0-2.56-8.76l-10.83-11.12A13.39,13.39,0,0,1,381.82,321.49Z" style="fill: rgb(235, 235, 235); transform-origin: 377.465px 345.34px;" id="elzcuuiiit1f" class="animable"></path><rect x="374.83" y="308.28" width="2.64" height="3.35" style="fill: rgb(235, 235, 235); transform-origin: 376.15px 309.955px;" id="eljfjrez8paek" class="animable"></rect><path d="M379.18,321.49v-8.85a4.36,4.36,0,0,0-4.35-4.36h0a4.36,4.36,0,0,0-4.36,4.36v8.85a13.39,13.39,0,0,1-3.79,9.33l-10.82,11.12a9.72,9.72,0,0,0-2.57,8.76l6.53,31.7h30l6.52-31.7a9.75,9.75,0,0,0-2.56-8.76L383,330.82A13.36,13.36,0,0,1,379.18,321.49Z" style="fill: rgb(224, 224, 224); transform-origin: 374.815px 345.34px;" id="elo4ecxmqplr" class="animable"></path><path d="M374.83,311.64h-60v3.59h60a1.8,1.8,0,0,0,0-3.59Z" style="fill: rgb(235, 235, 235); transform-origin: 345.663px 313.435px;" id="el1lbqtucufiq" class="animable"></path><path d="M321.81,321.49v-8.85a4.36,4.36,0,0,0-4.35-4.36h0a4.36,4.36,0,0,0-4.36,4.36v8.85a13.39,13.39,0,0,1-3.79,9.33l-10.83,11.12a9.75,9.75,0,0,0-2.56,8.76l6.52,31.7h30L339,350.7a9.75,9.75,0,0,0-2.56-8.76L325.6,330.82A13.39,13.39,0,0,1,321.81,321.49Z" style="fill: rgb(235, 235, 235); transform-origin: 317.46px 345.34px;" id="elt1vgvbmhv9" class="animable"></path><rect x="314.82" y="308.28" width="2.64" height="3.35" style="fill: rgb(235, 235, 235); transform-origin: 316.14px 309.955px;" id="el3jm9pse4rjy" class="animable"></rect><path d="M319.17,321.49v-8.85a4.36,4.36,0,0,0-4.35-4.36h0a4.35,4.35,0,0,0-4.35,4.36v8.85a13.4,13.4,0,0,1-3.8,9.33l-10.82,11.12a9.72,9.72,0,0,0-2.56,8.76l6.52,31.7h30l6.52-31.7a9.72,9.72,0,0,0-2.56-8.76L323,330.82A13.4,13.4,0,0,1,319.17,321.49Z" style="fill: rgb(245, 245, 245); transform-origin: 314.81px 345.34px;" id="elvmec9t8bv7f" class="animable"></path><path d="M316.62,313.43a1.8,1.8,0,1,1-1.8-1.79A1.81,1.81,0,0,1,316.62,313.43Z" style="fill: rgb(235, 235, 235); transform-origin: 314.82px 313.44px;" id="el489ejnc12dj" class="animable"></path><polygon points="396.94 350.7 338.53 350.7 331.89 382.4 390.3 382.4 396.94 350.7" style="fill: rgb(235, 235, 235); transform-origin: 364.415px 366.55px;" id="elxiicloun4pa" class="animable"></polygon><rect x="50.67" y="71.52" width="45.33" height="10.01" style="fill: rgb(250, 250, 250); transform-origin: 73.335px 76.525px;" id="el1rvg5vqkhzp" class="animable"></rect><rect x="72.27" y="81.53" width="45.33" height="10.01" style="fill: rgb(245, 245, 245); transform-origin: 94.935px 86.535px;" id="elg7v6yui3smp" class="animable"></rect><rect x="338.57" y="78.42" width="45.33" height="10.01" style="fill: rgb(250, 250, 250); transform-origin: 361.235px 83.425px;" id="el1tn9g37efsx" class="animable"></rect><rect x="360.18" y="68.41" width="45.33" height="10.01" style="fill: rgb(245, 245, 245); transform-origin: 382.845px 73.415px;" id="elsyo21c2undh" class="animable"></rect><rect x="49.6" y="138.47" width="45.33" height="10.01" style="fill: rgb(245, 245, 245); transform-origin: 72.265px 143.475px;" id="elnf1rl85ybyh" class="animable"></rect><rect x="397.28" y="291.24" width="45.33" height="10.01" style="fill: rgb(245, 245, 245); transform-origin: 419.945px 296.245px;" id="eltxunh4kugtq" class="animable"></rect></g><g id="freepik--Shadow--inject-6" class="animable animator-active animator-hidden" style="transform-origin: 250px 416.24px;"><ellipse id="freepik--path--inject-6" cx="250" cy="416.24" rx="193.89" ry="11.32" style="fill: rgb(245, 245, 245); transform-origin: 250px 416.24px;" class="animable"></ellipse></g><g id="freepik--Character--inject-6" class="animable" style="transform-origin: 240.256px 253.44px;"><path d="M245.21,162.28c-1.27,1.23-2.41,2.27-3.64,3.35s-2.46,2.11-3.71,3.14c-2.52,2-5.09,4-7.83,5.9a81.93,81.93,0,0,1-8.7,5.34,48.08,48.08,0,0,1-5,2.34,29.19,29.19,0,0,1-6.38,1.75l-.51.08a5.3,5.3,0,0,1-1.05,0,18.2,18.2,0,0,1-6.44-1.66,32.2,32.2,0,0,1-4.4-2.44,55.79,55.79,0,0,1-6.94-5.46c-2.08-1.92-4-3.9-5.85-6a75.58,75.58,0,0,1-5.2-6.48,4.54,4.54,0,0,1,6.12-6.45l.12.08,6.46,4.07c2.15,1.34,4.29,2.66,6.42,3.86a60.54,60.54,0,0,0,6.19,3.16,15,15,0,0,0,2.69.94c.75.18,1.39.2,1.18.09l-1.55.12a18.58,18.58,0,0,0,2.41-1.09c1-.54,2.11-1.17,3.21-1.88s2.23-1.49,3.35-2.32,2.27-1.65,3.4-2.53c2.26-1.77,4.54-3.6,6.78-5.49l3.36-2.85,3.27-2.82.16-.13a9,9,0,0,1,12.12,13.3Z" style="fill: rgb(207, 122, 100); transform-origin: 213.383px 165.456px;" id="eluuzoarpw0o" class="animable"></path><path d="M184,162.69l-10,1,2.19-11.89s9.19.17,9.89,5.07Z" style="fill: rgb(38, 50, 56); transform-origin: 180.04px 157.745px;" id="elpfclqmiff3l" class="animable"></path><path d="M165.82,157.18l1.47-4a3.49,3.49,0,0,1,3.93-2.24l5,.93L174,163.72l-6-2A3.5,3.5,0,0,1,165.82,157.18Z" style="fill: rgb(38, 50, 56); transform-origin: 170.911px 157.3px;" id="elypha4bxzyk" class="animable"></path><path d="M177.09,161.18c2.63,2.06,7,8.33,7.89,10.2,6.63-2.42,9.94-8.68,9.05-10.95-4.53-3.49-8.43-5.83-11.3-6.39C178.05,155,177.09,161.18,177.09,161.18Z" style="fill: rgb(38, 50, 56); transform-origin: 185.631px 162.71px;" id="elqt8jpn7uai" class="animable"></path><path d="M252.34,152.28c-1.47,4.92-4.69,11.81-9.6,14.65s-13.4,13.51-19.9,16.33c-10.39-5.32-10.94-14.74-9.71-19.6,6.29-8.34,17.78-20.56,23.76-22.18C242.09,140.07,246.58,148.22,252.34,152.28Z" style="fill: rgb(38, 50, 56); transform-origin: 232.501px 162.289px;" id="elpmm40d33ebr" class="animable"></path><path d="M251.18,113.39c3.41,1.41,5.44.87,5.44.87s-2-2.57-2-3.85a3.44,3.44,0,0,0,2.5,1.52c-1.56-5.49,1.84-7.67.73-9.81-2.1-4.06-9.83-4.1-9.14.28-3.2,1.69-3.79,5.73-3.79,5.73a6,6,0,0,1,2.13-2c-1.33,3.14-.67,7.59,1.63,10.93A2.68,2.68,0,0,0,251.18,113.39Z" style="fill: rgb(38, 50, 56); transform-origin: 251.499px 108.077px;" id="el7ciahicsk5r" class="animable"></path><g id="elp9kcdj85fz"><rect x="283.82" y="222.84" width="11.11" height="27" rx="4" style="fill: rgb(38, 50, 56); transform-origin: 289.375px 236.34px; transform: rotate(165.57deg);" class="animable"></rect></g><path d="M283.94,222.4c4.19-2.92,6.63-2.88,8.25-1.7s2,8.31,4.29,12.09C293.38,234.23,283.94,222.4,283.94,222.4Z" style="fill: rgb(38, 50, 56); transform-origin: 290.21px 226.429px;" id="elanr7i89tqds" class="animable"></path><path d="M278.61,139.64a169.36,169.36,0,0,0-35.06-.23,19.51,19.51,0,0,0-17.44,19.45c0,17.94,4.75,44.1,7.74,71.64,27.32,9.17,50.36-.46,50.36-.46.61-6.29.27-25-1.84-36,1.55-11.36,5.48-24.36,7.71-39.44A13.19,13.19,0,0,0,278.61,139.64Z" style="fill: rgb(38, 50, 56); transform-origin: 258.161px 186.536px;" id="ellkyadanfs7s" class="animable"></path><path d="M268.05,117.92a47.53,47.53,0,0,0,3.65,20.94c-3.68,3.42-9.65,7.67-17.61,7.55s-6.64-4.18-4.51-6.95c5.7-2.88,6.07-7.1,4.67-9.65Z" style="fill: rgb(206, 122, 99); transform-origin: 259.826px 132.166px;" id="el3joe6syxxjn" class="animable"></path><g id="el7ov7g3eeu5o"><path d="M268.05,117.92l-13.8,11.89a5.7,5.7,0,0,1,.14,5.15,11.26,11.26,0,0,0,7.82-2.56c3.55-2.85,4.83-6.3,5.83-11.19C268,120.17,268,119.08,268.05,117.92Z" style="opacity: 0.2; transform-origin: 261.15px 126.449px;" class="animable"></path></g><path d="M272.52,112c-1.56,8.92-2,14.23-7.09,18.29-7.61,6.1-18.25.64-19.38-8.6-1-8.31,1.71-21.51,10.92-24A12.48,12.48,0,0,1,272.52,112Z" style="fill: rgb(206, 122, 99); transform-origin: 259.291px 115.061px;" id="el79noalj2cbl" class="animable"></path><path d="M272.26,115.05c-3.54,1-5.5.28-5.5.28s2.25-2.34,2.44-3.61a3.46,3.46,0,0,1-2.65,1.24c2.14-5.29-1-7.83.34-9.83,2.52-3.81,11.36-2.35,10.19,1.93a5.07,5.07,0,0,1,2,5.44,4.61,4.61,0,0,0-1.77-1.78c1,3.27,1.85,6-2.94,10.22A2.68,2.68,0,0,1,272.26,115.05Z" style="fill: rgb(38, 50, 56); transform-origin: 272.895px 109.935px;" id="el2f4vzg21adt" class="animable"></path><path d="M248.39,121.16a66.47,66.47,0,0,1,10.61-.25c-1,2-2.81,3.53-6.81,3.39S248.39,121.16,248.39,121.16Z" style="fill: rgb(255, 255, 255); transform-origin: 253.694px 122.557px;" id="elk0ggnbmw4f" class="animable"></path><path d="M251.47,118.92c-.06,3-.12,3.85,4.5,4,3.25.13,6.49,2.27,6,4.19,1.42-1.45,2.52-4.64-.12-6.76C258.94,118.05,255.64,117.8,251.47,118.92Z" style="fill: rgb(38, 50, 56); transform-origin: 257.455px 122.692px;" id="el26ifoctfjkh" class="animable"></path><path d="M252.41,118.93c-.11,2.95-1.41,3.29-3.33,3.68s-2.27,1.35-2.08,2.75c-1.69-1-2.76-3.83-1.68-5.16A5.48,5.48,0,0,1,252.41,118.93Z" style="fill: rgb(38, 50, 56); transform-origin: 248.647px 121.755px;" id="elex0xkizpm7" class="animable"></path><path d="M275.22,118.89a8.23,8.23,0,0,1-4.44,4.13c-2.48.89-3.66-1.55-2.93-4.22.67-2.41,2.75-5.77,5.22-5.5S276.39,116.48,275.22,118.89Z" style="fill: rgb(206, 122, 99); transform-origin: 271.687px 118.246px;" id="ell1as5j6htw" class="animable"></path><path d="M260.21,111.66c-.11.77-.61,1.32-1.11,1.24s-.81-.76-.69-1.53.61-1.31,1.11-1.23S260.33,110.9,260.21,111.66Z" style="fill: rgb(38, 50, 56); transform-origin: 259.31px 111.52px;" id="elj0imvfni8q" class="animable"></path><path d="M250.91,110.32c-.12.76-.62,1.31-1.12,1.23s-.81-.76-.69-1.52.61-1.32,1.11-1.24S251,109.55,250.91,110.32Z" style="fill: rgb(38, 50, 56); transform-origin: 250px 110.17px;" id="elp25ufwlnspc" class="animable"></path><path d="M253.51,111.72s-2.41,4.12-4.64,5.94c1.16,1.47,3.54,1.27,3.54,1.27Z" style="fill: rgb(186, 77, 60); transform-origin: 251.19px 115.33px;" id="elches02e5bpg" class="animable"></path><path d="M263.23,108.45a.37.37,0,0,0,.23,0,.45.45,0,0,0,.27-.57,4.55,4.55,0,0,0-3-2.93.45.45,0,0,0-.55.33.46.46,0,0,0,.33.55h0a3.65,3.65,0,0,1,2.32,2.34A.45.45,0,0,0,263.23,108.45Z" style="fill: rgb(38, 50, 56); transform-origin: 261.961px 106.702px;" id="elj34r3353np" class="animable"></path><path d="M247.44,106.23a.45.45,0,0,0,.41-.13,3.59,3.59,0,0,1,3.06-1.14.44.44,0,0,0,.53-.35.46.46,0,0,0-.36-.54,4.48,4.48,0,0,0-3.88,1.4.46.46,0,0,0,0,.64A.57.57,0,0,0,247.44,106.23Z" style="fill: rgb(38, 50, 56); transform-origin: 249.26px 105.135px;" id="el5mda0352xpn" class="animable"></path><path d="M261.36,311.5c7.32-40.84,10.37-90.09,10.37-90.09l-40.3-.61s4.64,66.37,6.25,94.17c1.67,28.91,2.84,84.53,2.84,84.53H254S265.42,347.24,261.36,311.5Z" style="fill: rgb(64, 123, 255); transform-origin: 251.58px 310.15px;" id="elophk02cpm" class="animable"></path><g id="elnty2wsmcy6b"><path d="M253.45,232.54s5.3,39.64,9.64,68.71c3.86-24.43,6.31-50.1,7.58-65.54Z" style="opacity: 0.2; transform-origin: 262.06px 266.895px;" class="animable"></path></g><path d="M222.45,413.15s18.07-4.23,18.86-10.4l11.52,1.5,1.26,12h-4.76l-.75-1.49-1.6,1.49c-16.16,0-22.15-.17-25.14-1.17A1.9,1.9,0,0,1,222.45,413.15Z" style="fill: rgb(38, 50, 56); transform-origin: 237.934px 409.5px;" id="elmcerjq9fa2i" class="animable"></path><path d="M254.46,406.42c-4.32.25-13-.38-14.64-1.21s-.69-7.54-.69-7.54,15.11-1.5,16.44-.67S254.46,406.42,254.46,406.42Z" style="fill: rgb(64, 123, 255); transform-origin: 247.412px 401.613px;" id="eliox9rtayw3" class="animable"></path><g id="elza333gifrf"><path d="M254.46,406.42c-4.32.25-13-.38-14.64-1.21s-.69-7.54-.69-7.54,15.11-1.5,16.44-.67S254.46,406.42,254.46,406.42Z" style="fill: rgb(255, 255, 255); opacity: 0.3; transform-origin: 247.412px 401.613px;" class="animable"></path></g><path d="M297.57,310.35c-6.65-41.07-5.92-68.52-12.57-88.76l-38.59-.53s18.41,65.17,26.81,92.3,23.65,86.14,23.65,86.14h12.34S308.71,342.12,297.57,310.35Z" style="fill: rgb(64, 123, 255); transform-origin: 277.81px 310.28px;" id="elw4k93my8vz" class="animable"></path><path d="M283.89,413.15s13.63-4.23,14.42-10.4l11.52,1.5,1.26,12h-3l-.75-1.49-1.6,1.49c-16.16,0-19.49-.17-22.48-1.17A1.9,1.9,0,0,1,283.89,413.15Z" style="fill: rgb(38, 50, 56); transform-origin: 297.146px 409.5px;" id="el2ohsuxqjtuo" class="animable"></path><path d="M311.09,406.13c-2.66.54-12.7-.09-14.51-.92s-1.23-7.88-1.23-7.88,13.66-1.62,15.12-.79S311.09,406.13,311.09,406.13Z" style="fill: rgb(64, 123, 255); transform-origin: 303.296px 401.317px;" id="ell7nexbsbifo" class="animable"></path><g id="eli5htu3t31bm"><path d="M311.09,406.13c-2.66.54-12.7-.09-14.51-.92s-1.23-7.88-1.23-7.88,13.66-1.62,15.12-.79S311.09,406.13,311.09,406.13Z" style="fill: rgb(255, 255, 255); opacity: 0.3; transform-origin: 303.296px 401.317px;" class="animable"></path></g><path d="M231.43,220.8c-.39-4.52-4.23-36.59-4.38-39.53.19-16,8.23-36.33,13.5-42.16a5.55,5.55,0,0,1,3.84-.22s-7.28,9.28-9.28,24.72c13.39,3.22,27.84,1.61,31.62.83,1.32-10.77,8-23.77,9.46-25.62a9.29,9.29,0,0,1,3.59.51s-7.26,14.52-8,25.67,13.71,16.56,13.71,16.56-1.55,9.66-1.22,14,.78,26,.78,26S250.2,227.26,231.43,220.8Z" style="fill: rgb(64, 123, 255); transform-origin: 256.27px 181.265px;" id="el3irxx9clgah" class="animable"></path><polygon points="241.07 237.7 234.3 220.71 233.64 220.97 232.97 221.24 239.75 238.23 239.57 239.73 241.59 242.88 242.26 242.61 242.94 242.34 242.23 238.67 241.07 237.7" style="fill: rgb(255, 255, 255); transform-origin: 237.955px 231.795px;" id="elb4029fi7wj" class="animable"></polygon><path d="M234.15,222.27h0a2.4,2.4,0,0,1-3.1-1.34l-6.24-15.65a2.4,2.4,0,0,1,1.34-3.11h0a2.4,2.4,0,0,1,3.1,1.34l6.24,15.65A2.4,2.4,0,0,1,234.15,222.27Z" style="fill: rgb(38, 50, 56); transform-origin: 230.15px 212.22px;" id="el8jyd89hrtmi" class="animable"></path><path d="M231.21,218.61c-.66.67-.77,5,.56,7,8.91,4.59,32.4,5.26,54.31-.41.53-2.57.32-6-1.16-7.07-3,2.56-26.21,6.23-42.09,4.17A31.22,31.22,0,0,1,231.21,218.61Z" style="fill: rgb(38, 50, 56); transform-origin: 258.539px 223.692px;" id="elvds5rpt2pag" class="animable"></path><g id="elzbiftp3339"><path d="M234.55,169.5s8.34,3.42,31.59,1.75a143.29,143.29,0,0,1-.75,21.5c-.67,4.25-19,8.33-19,8.33s-11.69-4.5-12.61-9.75S234.55,169.5,234.55,169.5Z" style="fill: rgb(255, 255, 255); opacity: 0.2; transform-origin: 249.881px 185.29px;" class="animable"></path></g><path d="M279.05,107.41c-8.36-3.25-19.38-6.77-29.19-6.56a11.72,11.72,0,0,1,3.43-7.23c2-1.62,8.66-3,13.85-1.87,4.11.92,9.13,4,11.37,7.93C279.48,101.38,279.05,107.41,279.05,107.41Z" style="fill: rgb(64, 123, 255); transform-origin: 264.502px 99.3738px;" id="elyu75gobrjp" class="animable"></path><g id="elqcbz5cacas"><path d="M267.77,94.83c-3.92-3.6-12.51-2.83-14.48-1.21a11.72,11.72,0,0,0-3.43,7.23c6.23-.13,12.94,1.24,19.15,3.09C269.11,100.62,269.29,98.15,267.77,94.83Z" style="fill: rgb(255, 255, 255); opacity: 0.3; transform-origin: 259.467px 98.102px;" class="animable"></path></g><path d="M270.67,104.44c-5.91-.52-12.32-.81-15.12-2s-9.66-1.67-11-.21c-.62-1.13,2.53-3.18,9-2.84S270.67,104.44,270.67,104.44Z" style="fill: rgb(64, 123, 255); transform-origin: 257.572px 101.896px;" id="el8ccpbswpi0c" class="animable"></path><polygon points="261.02 93.96 258.36 93.74 257.26 95.93 256.49 95.86 255.46 98.66 258.41 96.04 258.95 96.08 261.02 93.96" style="fill: rgb(255, 255, 255); transform-origin: 258.24px 96.2px;" id="elvrfrgzrj779" class="animable"></polygon><path d="M268,91.87c-.1.5-.78.78-1.5.63s-1.21-.7-1.1-1.2.78-.78,1.5-.63S268.14,91.36,268,91.87Z" style="fill: rgb(64, 123, 255); transform-origin: 266.704px 91.585px;" id="elvr1no37n82" class="animable"></path><path d="M291,146.62c1.3,1.21,2.41,2.28,3.55,3.46s2.24,2.34,3.34,3.53c2.17,2.41,4.3,4.87,6.31,7.5a81.77,81.77,0,0,1,5.81,8.4,48.82,48.82,0,0,1,2.61,4.9,28.66,28.66,0,0,1,2.09,6.28l.11.5a4.67,4.67,0,0,1,.09,1,18.07,18.07,0,0,1-1.3,6.53,33.41,33.41,0,0,1-2.2,4.52,54.78,54.78,0,0,1-5.08,7.23,83.12,83.12,0,0,1-5.63,6.17,78.66,78.66,0,0,1-6.19,5.54,4.53,4.53,0,0,1-6.77-5.76l.07-.12,3.72-6.68c1.22-2.22,2.42-4.42,3.5-6.61a59.89,59.89,0,0,0,2.82-6.36,15.79,15.79,0,0,0,.8-2.74c.14-.76.12-1.39,0-1.18l.2,1.54a17.82,17.82,0,0,0-1.21-2.35c-.6-1-1.29-2-2.06-3.1s-1.61-2.14-2.49-3.22-1.78-2.18-2.72-3.26c-1.89-2.16-3.84-4.33-5.85-6.47l-3-3.2-3-3.11-.15-.15A9,9,0,0,1,291,146.62Z" style="fill: rgb(207, 122, 100); transform-origin: 295.467px 178.755px;" id="ellu4y8o8vpp" class="animable"></path><path d="M293.67,203.71l-10.08.14,3.55,11.56s9.12-1.23,9.24-6.18Z" style="fill: rgb(38, 50, 56); transform-origin: 289.985px 209.56px;" id="elsy7z6ruqs6a" class="animable"></path><path d="M276.23,211.31l1.93,3.84a3.49,3.49,0,0,0,4.16,1.77l4.82-1.51-3.55-11.56-5.74,2.73A3.5,3.5,0,0,0,276.23,211.31Z" style="fill: rgb(38, 50, 56); transform-origin: 281.499px 210.464px;" id="elz6vrdewy15p" class="animable"></path><path d="M287.36,205.28a28.28,28.28,0,0,0,5.19-9c6.89,1.52,11,7.28,10.42,9.65-4,4.06-7.58,6.9-10.34,7.83C288.71,211.72,287.36,205.28,287.36,205.28Z" style="fill: rgb(38, 50, 56); transform-origin: 295.192px 205.02px;" id="eld74gl2aigp6" class="animable"></path><path d="M280.65,140.05c5,1.2,12.05,4,15.14,8.78s11.43,13.84,14.6,20.17c-4.75,10.66-11.34,10.54-16.25,9.58-8.67-5.83-19.84-13.07-20-19.25C274,153.94,276.91,146,280.65,140.05Z" style="fill: rgb(38, 50, 56); transform-origin: 292.263px 159.519px;" id="eldv14swdk5kv" class="animable"></path><path d="M288.09,192.55a2.91,2.91,0,0,1-1.33-.39l-.56-.33a6.05,6.05,0,0,1-4.25-2.69,10.56,10.56,0,0,1-1.17-3c-2.43-9.16-3.39-16.71-3-23.75h0a48.12,48.12,0,0,1,.66-5.95,42.26,42.26,0,0,1,3-10.05,34,34,0,0,1,2.48-4.62l.19-.35c.49-.89,1-1.63,1.59-1.74a1.27,1.27,0,0,1,.64.05,1.72,1.72,0,0,1,.87-.46,1,1,0,0,1,.84.27,1.25,1.25,0,0,1,.38.76c.36,1.73-.4,3.32-1.13,4.87-.14.3-.29.6-.42.9-1.93,4.35-1.78,9.34-1.63,14.17,0,1.16.08,2.32.09,3.47,0,1,0,1.94,0,2.91,0,1.76-.05,3.59.06,5.37.13,2,.43,4.09.73,6.08a35,35,0,0,0,1.29,6.06c.23.68.51,1.36.78,2a18.1,18.1,0,0,1,1.36,4.24,2.07,2.07,0,0,1-.47,1.85A1.44,1.44,0,0,1,288.09,192.55Zm-1.53-1.68a4.82,4.82,0,0,0,.93,0,33,33,0,0,1-3.79-5.31c-2.68-4.91-3.11-10.7-3.31-15.74a.43.43,0,0,1,0,0,51.3,51.3,0,0,0,.06,7.84,24.44,24.44,0,0,0,1.73,7.82A12.33,12.33,0,0,0,286.56,190.87Zm-5.28-27.77c0,2.35,0,4.61.11,6.68.19,4.93.62,10.58,3.19,15.3a32.78,32.78,0,0,0,4,5.49.2.2,0,0,1,0-.07,16.87,16.87,0,0,0-1.29-4c-.28-.67-.57-1.37-.81-2.08a35.64,35.64,0,0,1-1.32-6.23c-.31-2-.62-4.09-.75-6.17-.11-1.82-.09-3.66-.06-5.45,0-1,0-1.92,0-2.88,0-1.14-.05-2.3-.08-3.45a48.77,48.77,0,0,1,.39-10.26l-.76,2.75C282.94,156.11,282,159.58,281.28,163.1Zm1.33,25.2.18.31a4.43,4.43,0,0,0,.76.91A14.57,14.57,0,0,1,282.61,188.3Zm2.1-46a35.39,35.39,0,0,0-2.37,4.44,41.31,41.31,0,0,0-2.95,9.81,46.41,46.41,0,0,0-.64,5.83h0a60.66,60.66,0,0,0,.51,11.27,52.91,52.91,0,0,1,.47-7.34c.15-1.12.34-2.23.55-3.33a65.5,65.5,0,0,1,.65-8.35A39.87,39.87,0,0,1,284.71,142.32Zm.9.44a38.89,38.89,0,0,0-3.69,12c-.12.81-.22,1.62-.3,2.42.42-1.61.86-3.19,1.29-4.77Zm1.36-2.29a2.94,2.94,0,0,1-.07,1.38l-1.26,4.54c.1-.26.2-.51.32-.77s.28-.61.43-.92c.66-1.4,1.34-2.84,1.06-4.24,0-.17-.07-.22-.09-.23S287.13,140.3,287,140.47Z" style="fill: rgb(64, 123, 255); transform-origin: 283.655px 165.906px;" id="elxz8pmx0kwrk" class="animable"></path><g id="ells4kxcmkcs9"><path d="M288.09,192.55a2.91,2.91,0,0,1-1.33-.39l-.56-.33a6.05,6.05,0,0,1-4.25-2.69,10.56,10.56,0,0,1-1.17-3c-2.43-9.16-3.39-16.71-3-23.75h0a48.12,48.12,0,0,1,.66-5.95,42.26,42.26,0,0,1,3-10.05,34,34,0,0,1,2.48-4.62l.19-.35c.49-.89,1-1.63,1.59-1.74a1.27,1.27,0,0,1,.64.05,1.72,1.72,0,0,1,.87-.46,1,1,0,0,1,.84.27,1.25,1.25,0,0,1,.38.76c.36,1.73-.4,3.32-1.13,4.87-.14.3-.29.6-.42.9-1.93,4.35-1.78,9.34-1.63,14.17,0,1.16.08,2.32.09,3.47,0,1,0,1.94,0,2.91,0,1.76-.05,3.59.06,5.37.13,2,.43,4.09.73,6.08a35,35,0,0,0,1.29,6.06c.23.68.51,1.36.78,2a18.1,18.1,0,0,1,1.36,4.24,2.07,2.07,0,0,1-.47,1.85A1.44,1.44,0,0,1,288.09,192.55Zm-1.53-1.68a4.82,4.82,0,0,0,.93,0,33,33,0,0,1-3.79-5.31c-2.68-4.91-3.11-10.7-3.31-15.74a.43.43,0,0,1,0,0,51.3,51.3,0,0,0,.06,7.84,24.44,24.44,0,0,0,1.73,7.82A12.33,12.33,0,0,0,286.56,190.87Zm-5.28-27.77c0,2.35,0,4.61.11,6.68.19,4.93.62,10.58,3.19,15.3a32.78,32.78,0,0,0,4,5.49.2.2,0,0,1,0-.07,16.87,16.87,0,0,0-1.29-4c-.28-.67-.57-1.37-.81-2.08a35.64,35.64,0,0,1-1.32-6.23c-.31-2-.62-4.09-.75-6.17-.11-1.82-.09-3.66-.06-5.45,0-1,0-1.92,0-2.88,0-1.14-.05-2.3-.08-3.45a48.77,48.77,0,0,1,.39-10.26l-.76,2.75C282.94,156.11,282,159.58,281.28,163.1Zm1.33,25.2.18.31a4.43,4.43,0,0,0,.76.91A14.57,14.57,0,0,1,282.61,188.3Zm2.1-46a35.39,35.39,0,0,0-2.37,4.44,41.31,41.31,0,0,0-2.95,9.81,46.41,46.41,0,0,0-.64,5.83h0a60.66,60.66,0,0,0,.51,11.27,52.91,52.91,0,0,1,.47-7.34c.15-1.12.34-2.23.55-3.33a65.5,65.5,0,0,1,.65-8.35A39.87,39.87,0,0,1,284.71,142.32Zm.9.44a38.89,38.89,0,0,0-3.69,12c-.12.81-.22,1.62-.3,2.42.42-1.61.86-3.19,1.29-4.77Zm1.36-2.29a2.94,2.94,0,0,1-.07,1.38l-1.26,4.54c.1-.26.2-.51.32-.77s.28-.61.43-.92c.66-1.4,1.34-2.84,1.06-4.24,0-.17-.07-.22-.09-.23S287.13,140.3,287,140.47Z" style="fill: rgb(255, 255, 255); opacity: 0.4; transform-origin: 283.655px 165.906px;" class="animable"></path></g></g><g id="freepik--Bulb--inject-6" class="animable" style="transform-origin: 170.315px 101.506px;"><g id="elb7h7lr3dbr5"><path d="M193.94,95.86a24.11,24.11,0,1,0-34.52,26.36,9.76,9.76,0,0,1,3.3,2.68h0a9.27,9.27,0,0,0,9.22,3.42l7.81-1.61a9.27,9.27,0,0,0,7.12-6.79h0a9.61,9.61,0,0,1,1.95-3.73A24.07,24.07,0,0,0,193.94,95.86Z" style="fill: rgb(64, 123, 255); opacity: 0.4; transform-origin: 170.326px 102.559px;" class="animable"></path></g><path d="M183.36,131.56l-12.82,2.64a1.8,1.8,0,0,1-2.12-1.39h0a1.81,1.81,0,0,1,1.4-2.12L182.64,128a1.81,1.81,0,0,1,2.12,1.4h0A1.81,1.81,0,0,1,183.36,131.56Z" style="fill: rgb(38, 50, 56); transform-origin: 176.594px 131.101px;" id="elxce3ag4kx8e" class="animable"></path><path d="M183.17,136.91,172.84,139a1.8,1.8,0,0,1-2.12-1.4h0a1.79,1.79,0,0,1,1.39-2.11l10.33-2.13a1.8,1.8,0,0,1,2.12,1.39h0A1.8,1.8,0,0,1,183.17,136.91Z" style="fill: rgb(38, 50, 56); transform-origin: 177.644px 136.18px;" id="elmaiw4bvhlq" class="animable"></path><path d="M179.85,127.2a.5.5,0,0,1-.57-.33c-.24-.71-3.81-11.77-4.55-21.22a40,40,0,0,1-6.51,1.34c3.06,9,4.15,20.54,4.22,21.29a.5.5,0,0,1-.45.54.49.49,0,0,1-.54-.45c0-.18-1.16-12.27-4.24-21.27-7.89.65-10.68-2.35-11.56-3.84a4.7,4.7,0,0,1,.26-5.44,4.56,4.56,0,0,1,5.36-1c2.81,1.07,5,4.75,6.61,9.23q1.58-.17,3.42-.54c1.24-.26,2.36-.54,3.36-.85-.27-4.77.26-9,2.42-11.1a4.57,4.57,0,0,1,5.33-1.17,4.71,4.71,0,0,1,2.4,4.89c-.23,1.72-1.61,5.58-9.11,8.09.74,9.49,4.47,21,4.53,21.22a.51.51,0,0,1-.32.63ZM180,93a4.58,4.58,0,0,0-2.2,1.25c-1.89,1.84-2.38,5.67-2.14,10.06,7-2.43,8-6,8.19-7.19A3.7,3.7,0,0,0,182,93.26,3,3,0,0,0,180,93Zm-21.56,4.45a3,3,0,0,0-1.73,1,3.7,3.7,0,0,0-.18,4.28c.61,1,3,3.89,10.36,3.37-1.51-4.13-3.47-7.45-5.94-8.4A4.49,4.49,0,0,0,158.41,97.45Z" style="fill: rgb(255, 255, 255); transform-origin: 169.888px 110.404px;" id="elfghq9j057gk" class="animable"></path><g id="ell4goo4nghzd"><rect x="168.57" y="67.17" width="7.34" height="1" style="fill: rgb(64, 123, 255); transform-origin: 172.24px 67.67px; transform: rotate(-86.61deg);" class="animable"></rect></g><g id="elfzoce203434"><rect x="177.05" y="68.78" width="7.34" height="1" style="fill: rgb(64, 123, 255); transform-origin: 180.72px 69.28px; transform: rotate(-71.6deg);" class="animable"></rect></g><g id="elxmig8wgw86"><rect x="184.81" y="72.56" width="7.34" height="1" style="fill: rgb(64, 123, 255); transform-origin: 188.48px 73.06px; transform: rotate(-56.67deg);" class="animable"></rect></g><g id="eljpordvb8tx"><rect x="148.47" y="127.79" width="7.34" height="1" style="fill: rgb(64, 123, 255); transform-origin: 152.14px 128.29px; transform: rotate(-56.67deg);" class="animable"></rect></g><g id="eljkb2vyxzu3"><rect x="191.35" y="78.19" width="7.34" height="1" style="fill: rgb(64, 123, 255); transform-origin: 195.02px 78.69px; transform: rotate(-41.66deg);" class="animable"></rect></g><g id="el0ke1enmg4kbi"><rect x="141.93" y="122.14" width="7.34" height="1" style="fill: rgb(64, 123, 255); transform-origin: 145.6px 122.64px; transform: rotate(-41.66deg);" class="animable"></rect></g><g id="elk5xobjs0lrl"><rect x="196.19" y="85.34" width="7.35" height="1" style="fill: rgb(64, 123, 255); transform-origin: 199.865px 85.84px; transform: rotate(-26.7deg);" class="animable"></rect></g><g id="el9mhz1s9ywsm"><rect x="137.09" y="114.99" width="7.35" height="1" style="fill: rgb(64, 123, 255); transform-origin: 140.765px 115.49px; transform: rotate(-26.7deg);" class="animable"></rect></g><g id="eljxxc9npws39"><rect x="199.02" y="93.49" width="7.35" height="1" style="fill: rgb(64, 123, 255); transform-origin: 202.695px 93.99px; transform: rotate(-11.65deg);" class="animable"></rect></g><g id="el7p7o7jxbxux"><rect x="134.26" y="106.84" width="7.35" height="1" style="fill: rgb(64, 123, 255); transform-origin: 137.935px 107.34px; transform: rotate(-11.65deg);" class="animable"></rect></g><g id="el6nwczdzjfoo"><rect x="202.82" y="98.92" width="1" height="7.35" style="fill: rgb(64, 123, 255); transform-origin: 203.32px 102.595px; transform: rotate(-86.64deg);" class="animable"></rect></g><g id="elmqgib323t"><rect x="136.81" y="95.06" width="1" height="7.35" style="fill: rgb(64, 123, 255); transform-origin: 137.31px 98.735px; transform: rotate(-86.64deg);" class="animable"></rect></g><g id="elhfr1lajn9fa"><rect x="201.19" y="107.4" width="1" height="7.34" style="fill: rgb(64, 123, 255); transform-origin: 201.69px 111.07px; transform: rotate(-71.62deg);" class="animable"></rect></g><g id="el5jwgsqfwr14"><rect x="138.43" y="86.59" width="1" height="7.34" style="fill: rgb(64, 123, 255); transform-origin: 138.93px 90.26px; transform: rotate(-71.62deg);" class="animable"></rect></g><g id="el1xxy3sjjkd9"><rect x="197.43" y="115.17" width="1" height="7.34" style="fill: rgb(64, 123, 255); transform-origin: 197.93px 118.84px; transform: rotate(-56.6deg);" class="animable"></rect></g><g id="el503c1xna0bq"><rect x="142.2" y="78.83" width="1" height="7.34" style="fill: rgb(64, 123, 255); transform-origin: 142.7px 82.5px; transform: rotate(-56.6deg);" class="animable"></rect></g><g id="el7eoctvcx0oq"><rect x="147.84" y="72.29" width="1" height="7.34" style="fill: rgb(64, 123, 255); transform-origin: 148.34px 75.96px; transform: rotate(-41.68deg);" class="animable"></rect></g><g id="elux8h0a1vk4d"><rect x="154.98" y="67.45" width="1" height="7.34" style="fill: rgb(64, 123, 255); transform-origin: 155.48px 71.12px; transform: rotate(-26.68deg);" class="animable"></rect></g><g id="elfuofav8xsw"><rect x="163.14" y="64.61" width="1" height="7.35" style="fill: rgb(64, 123, 255); transform-origin: 163.64px 68.285px; transform: rotate(-11.65deg);" class="animable"></rect></g></g><defs>     <filter id="active" height="200%">         <feMorphology in="SourceAlpha" result="DILATED" operator="dilate" radius="2"></feMorphology>                <feFlood flood-color="#32DFEC" flood-opacity="1" result="PINK"></feFlood>        <feComposite in="PINK" in2="DILATED" operator="in" result="OUTLINE"></feComposite>        <feMerge>            <feMergeNode in="OUTLINE"></feMergeNode>            <feMergeNode in="SourceGraphic"></feMergeNode>        </feMerge>    </filter>    <filter id="hover" height="200%">        <feMorphology in="SourceAlpha" result="DILATED" operator="dilate" radius="2"></feMorphology>                <feFlood flood-color="#ff0000" flood-opacity="0.5" result="PINK"></feFlood>        <feComposite in="PINK" in2="DILATED" operator="in" result="OUTLINE"></feComposite>        <feMerge>            <feMergeNode in="OUTLINE"></feMergeNode>            <feMergeNode in="SourceGraphic"></feMergeNode>        </feMerge>            <feColorMatrix type="matrix" values="0   0   0   0   0                0   1   0   0   0                0   0   0   0   0                0   0   0   1   0 "></feColorMatrix>    </filter></defs></svg>